<svg xmlns="http://www.w3.org/2000/svg" xmlns:xlink="http://www.w3.org/1999/xlink" width="500" zoomAndPan="magnify" viewBox="0 0 375 374.999991" height="500" preserveAspectRatio="xMidYMid meet" version="1.0"><defs><g/><clipPath id="6969239d0e"><path d="M 49.921875 129.109375 L 223.921875 129.109375 L 223.921875 257.359375 L 49.921875 257.359375 Z M 49.921875 129.109375 " clip-rule="nonzero"/></clipPath><clipPath id="dcee608184"><rect x="0" width="93" y="0" height="84"/></clipPath><clipPath id="ddcdc5ff8d"><path d="M 0.480469 13 L 39 13 L 39 45 L 0.480469 45 Z M 0.480469 13 " clip-rule="nonzero"/></clipPath><clipPath id="e1a4ff3033"><rect x="0" width="132" y="0" height="54"/></clipPath></defs><path fill="#d9d9d9" d="M 116.699219 223.445312 C 115.671875 223.550781 114.628906 223.605469 113.574219 223.605469 C 96.742188 223.605469 83.097656 209.960938 83.097656 193.128906 C 83.097656 176.296875 96.742188 162.652344 113.574219 162.652344 C 114.628906 162.652344 115.671875 162.703125 116.699219 162.808594 C 101.335938 164.375 89.347656 177.351562 89.347656 193.128906 C 89.347656 208.90625 101.335938 221.882812 116.699219 223.445312 " fill-opacity="1" fill-rule="nonzero"/><g clip-path="url(#6969239d0e)"><path fill="#bf1f2f" d="M 157.640625 215.25 L 139.269531 215.25 C 133.054688 222.464844 123.847656 227.035156 113.574219 227.035156 C 94.847656 227.035156 79.667969 211.855469 79.667969 193.128906 C 79.667969 174.402344 94.847656 159.21875 113.574219 159.21875 C 123.847656 159.21875 133.054688 163.789062 139.269531 171.003906 L 223.808594 171.003906 L 161.0625 165.007812 L 163.292969 161.417969 C 164.261719 159.859375 164.679688 157.996094 164.472656 156.171875 C 164.261719 154.347656 163.429688 152.628906 162.132812 151.332031 L 155.039062 144.238281 C 153.742188 142.9375 152.019531 142.109375 150.195312 141.898438 C 148.371094 141.6875 146.511719 142.105469 144.949219 143.074219 L 137.464844 147.726562 C 136.683594 148.214844 135.71875 148.265625 134.878906 147.867188 C 133.382812 147.15625 131.832031 146.515625 130.269531 145.957031 C 129.398438 145.644531 128.757812 144.925781 128.546875 144.03125 L 126.546875 135.449219 C 126.128906 133.664062 125.105469 132.050781 123.667969 130.910156 C 122.230469 129.769531 120.425781 129.140625 118.589844 129.140625 L 108.558594 129.140625 C 106.722656 129.140625 104.917969 129.769531 103.480469 130.910156 C 102.042969 132.050781 101.019531 133.664062 100.601562 135.449219 L 98.601562 144.03125 C 98.390625 144.925781 97.75 145.644531 96.878906 145.957031 C 95.316406 146.515625 93.765625 147.15625 92.269531 147.867188 C 91.433594 148.265625 90.464844 148.214844 89.683594 147.726562 L 82.199219 143.074219 C 80.640625 142.105469 78.777344 141.6875 76.953125 141.898438 C 75.128906 142.109375 73.410156 142.9375 72.109375 144.238281 L 65.015625 151.332031 C 63.71875 152.628906 62.886719 154.347656 62.675781 156.171875 C 62.46875 157.996094 62.886719 159.859375 63.855469 161.417969 L 68.507812 168.902344 C 68.992188 169.683594 69.046875 170.648438 68.648438 171.488281 C 67.9375 172.984375 67.292969 174.535156 66.738281 176.097656 C 66.425781 176.96875 65.707031 177.609375 64.8125 177.820312 L 56.230469 179.824219 C 54.445312 180.238281 52.832031 181.261719 51.6875 182.699219 C 50.546875 184.136719 49.917969 185.941406 49.917969 187.777344 L 49.917969 192.792969 C 49.917969 193.023438 49.949219 193.246094 50.003906 193.460938 L 49.917969 193.460938 L 49.917969 198.703125 C 49.917969 201.339844 51.734375 203.628906 54.304688 204.226562 L 63.269531 206.320312 C 65.152344 206.757812 66.679688 208.128906 67.328125 209.949219 C 67.882812 211.5 68.511719 213.019531 69.214844 214.496094 C 70.042969 216.242188 69.933594 218.292969 68.914062 219.9375 L 64.050781 227.757812 C 62.660156 230 62.992188 232.902344 64.855469 234.765625 L 65.027344 234.933594 L 72.101562 242.011719 L 72.269531 242.179688 C 74.136719 244.042969 77.039062 244.378906 79.277344 242.984375 L 87.097656 238.121094 C 88.742188 237.101562 90.792969 236.992188 92.539062 237.824219 C 94.015625 238.523438 95.535156 239.152344 97.089844 239.707031 C 98.90625 240.355469 100.277344 241.882812 100.714844 243.765625 L 102.808594 252.734375 C 103.40625 255.300781 105.695312 257.117188 108.332031 257.117188 L 118.816406 257.117188 C 121.453125 257.117188 123.742188 255.300781 124.339844 252.734375 L 126.433594 243.765625 C 126.871094 241.882812 128.242188 240.355469 130.0625 239.707031 C 131.613281 239.152344 133.132812 238.523438 134.609375 237.824219 C 136.359375 236.992188 138.40625 237.101562 140.050781 238.121094 L 147.875 242.984375 C 150.109375 244.378906 153.015625 244.042969 154.878906 242.179688 L 162.292969 234.765625 C 164.15625 232.902344 164.492188 230 163.101562 227.757812 L 159.164062 221.429688 L 223.808594 215.25 L 157.640625 215.25 " fill-opacity="1" fill-rule="nonzero"/></g><g transform="matrix(1, 0, 0, 1, 230, 145)"><g clip-path="url(#dcee608184)"><g fill="#000000" fill-opacity="1"><g transform="translate(4.053072, 68.284126)"><g><path d="M 21.359375 -5.078125 C 20.953125 -4.054688 20.28125 -3.28125 19.34375 -2.75 L 14.875 -0.484375 C 14.34375 -0.160156 13.75 0 13.09375 0 L 5.140625 0 L 17.75 -34.765625 C 18.15625 -35.828125 18.847656 -36.601562 19.828125 -37.09375 L 24.25 -39.359375 C 24.769531 -39.691406 25.359375 -39.859375 26.015625 -39.859375 L 33.96875 -39.859375 Z M 21.359375 -5.078125 "/></g></g></g><g fill="#000000" fill-opacity="1"><g transform="translate(29.333485, 68.284126)"><g><path d="M 16.046875 0 C 15.429688 0 14.90625 -0.078125 14.46875 -0.234375 C 14.039062 -0.398438 13.625 -0.628906 13.21875 -0.921875 L 7.84375 -5.328125 C 7.3125 -5.859375 6.992188 -6.519531 6.890625 -7.3125 C 6.785156 -8.113281 6.875 -8.941406 7.15625 -9.796875 L 13.890625 -28.28125 C 15.328125 -32.238281 17.71875 -35.15625 21.0625 -37.03125 C 24.40625 -38.914062 28.363281 -39.859375 32.9375 -39.859375 L 52.59375 -39.859375 C 53.851562 -39.859375 54.769531 -39.550781 55.34375 -38.9375 L 60.84375 -34.65625 C 61.375 -34.125 61.703125 -33.457031 61.828125 -32.65625 C 61.953125 -31.863281 61.851562 -31 61.53125 -30.0625 L 54.796875 -11.578125 C 53.773438 -8.796875 52.285156 -6.535156 50.328125 -4.796875 C 48.367188 -3.066406 46.019531 -1.816406 43.28125 -1.046875 L 48.609375 5.328125 L 48.234375 6.25 L 33.609375 6.25 L 29.078125 0 Z M 22.53125 -12.609375 C 22.238281 -11.796875 22.285156 -11.09375 22.671875 -10.5 C 23.066406 -9.90625 23.691406 -9.609375 24.546875 -9.609375 L 36.734375 -9.609375 C 37.546875 -9.609375 38.347656 -9.90625 39.140625 -10.5 C 39.941406 -11.09375 40.484375 -11.796875 40.765625 -12.609375 L 46.09375 -27.25 C 46.425781 -28.101562 46.394531 -28.8125 46 -29.375 C 45.613281 -29.945312 44.992188 -30.234375 44.140625 -30.234375 L 31.953125 -30.234375 C 31.140625 -30.234375 30.332031 -29.945312 29.53125 -29.375 C 28.738281 -28.8125 28.179688 -28.101562 27.859375 -27.25 Z M 22.53125 -12.609375 "/></g></g></g><g fill="#bf1b2c" fill-opacity="1"><g transform="translate(1.347476, 65.57853)"><g><path d="M 22.429688 -4.65625 C 21.921875 -3.382812 21.082031 -2.417969 19.910156 -1.753906 L 19.886719 -1.742188 L 15.394531 0.535156 L 14.875 -0.488281 L 15.476562 0.488281 C 14.761719 0.929688 13.96875 1.148438 13.101562 1.148438 L 3.503906 1.148438 L 16.671875 -35.164062 C 17.195312 -36.515625 18.074219 -37.5 19.320312 -38.125 L 23.71875 -40.382812 L 24.242188 -39.363281 L 23.640625 -40.339844 C 24.355469 -40.78125 25.148438 -41 26.015625 -41 L 35.613281 -41 L 22.4375 -4.671875 Z M 20.296875 -5.507812 L 21.363281 -5.082031 L 20.285156 -5.472656 L 32.894531 -40.242188 L 33.976562 -39.851562 L 33.976562 -38.703125 L 26.015625 -38.703125 C 25.582031 -38.703125 25.1875 -38.597656 24.84375 -38.382812 L 24.804688 -38.359375 L 20.347656 -36.070312 C 19.632812 -35.714844 19.128906 -35.148438 18.832031 -34.378906 L 6.222656 0.390625 L 5.140625 0 L 5.140625 -1.148438 L 13.101562 -1.148438 C 13.535156 -1.148438 13.929688 -1.253906 14.273438 -1.46875 L 14.3125 -1.492188 L 18.824219 -3.777344 L 19.34375 -2.753906 L 18.78125 -3.753906 C 19.484375 -4.152344 19.992188 -4.738281 20.296875 -5.507812 Z M 20.296875 -5.507812 "/></g></g></g><g fill="#bf1b2c" fill-opacity="1"><g transform="translate(26.62789, 65.57853)"><g><path d="M 16.039062 1.148438 C 15.285156 1.148438 14.628906 1.042969 14.070312 0.828125 C 13.550781 0.628906 13.050781 0.363281 12.5625 0.0234375 L 12.527344 -0.00390625 L 7.066406 -4.472656 L 7.023438 -4.515625 C 6.308594 -5.230469 5.882812 -6.113281 5.75 -7.167969 C 5.625 -8.136719 5.730469 -9.132812 6.074219 -10.15625 L 6.078125 -10.171875 L 12.816406 -28.675781 C 14.34375 -32.898438 16.902344 -36.019531 20.496094 -38.035156 C 24.019531 -40.011719 28.164062 -41 32.933594 -41 L 52.585938 -41 C 54.183594 -41 55.378906 -40.570312 56.179688 -39.714844 L 55.339844 -38.933594 L 56.042969 -39.839844 L 61.609375 -35.511719 L 61.660156 -35.460938 C 62.367188 -34.753906 62.800781 -33.875 62.964844 -32.832031 C 63.113281 -31.847656 62.996094 -30.796875 62.605469 -29.679688 L 55.867188 -11.175781 C 54.78125 -8.21875 53.183594 -5.808594 51.082031 -3.945312 C 48.992188 -2.097656 46.496094 -0.757812 43.59375 0.0625 L 43.28125 -1.039062 L 44.160156 -1.777344 L 49.925781 5.117188 L 49.015625 7.390625 L 33.023438 7.390625 L 28.148438 0.675781 L 29.078125 0 L 29.078125 1.148438 Z M 16.039062 -1.148438 L 29.664062 -1.148438 L 34.535156 5.570312 L 33.609375 6.242188 L 33.609375 5.097656 L 48.238281 5.097656 L 48.238281 6.242188 L 47.171875 5.816406 L 47.539062 4.898438 L 48.605469 5.324219 L 47.726562 6.0625 L 41.261719 -1.660156 L 42.964844 -2.144531 C 45.53125 -2.871094 47.730469 -4.046875 49.558594 -5.664062 C 51.375 -7.273438 52.757812 -9.371094 53.710938 -11.960938 L 60.4375 -30.433594 C 60.703125 -31.191406 60.789062 -31.875 60.695312 -32.484375 C 60.609375 -33.03125 60.390625 -33.484375 60.039062 -33.835938 L 60.847656 -34.648438 L 60.144531 -33.742188 L 54.5625 -38.082031 L 54.5 -38.148438 C 54.15625 -38.519531 53.515625 -38.703125 52.585938 -38.703125 L 32.933594 -38.703125 C 28.5625 -38.703125 24.792969 -37.8125 21.621094 -36.035156 C 18.523438 -34.296875 16.308594 -31.582031 14.976562 -27.890625 L 8.242188 -9.402344 L 7.164062 -9.792969 L 8.25 -9.429688 C 8.019531 -8.742188 7.945312 -8.082031 8.027344 -7.460938 C 8.09375 -6.925781 8.300781 -6.484375 8.648438 -6.136719 L 7.835938 -5.324219 L 8.5625 -6.214844 L 13.949219 -1.808594 L 13.222656 -0.917969 L 13.882812 -1.859375 C 14.210938 -1.628906 14.546875 -1.445312 14.886719 -1.316406 C 15.183594 -1.203125 15.566406 -1.148438 16.039062 -1.148438 Z M 23.609375 -12.230469 C 23.449219 -11.769531 23.460938 -11.402344 23.640625 -11.128906 C 23.800781 -10.882812 24.105469 -10.757812 24.546875 -10.757812 L 36.730469 -10.757812 C 37.292969 -10.757812 37.871094 -10.980469 38.460938 -11.417969 C 39.070312 -11.871094 39.476562 -12.394531 39.6875 -12.988281 L 45.015625 -27.632812 C 45.207031 -28.128906 45.21875 -28.496094 45.054688 -28.738281 C 44.894531 -28.976562 44.589844 -29.09375 44.136719 -29.09375 L 31.953125 -29.09375 C 31.386719 -29.09375 30.800781 -28.878906 30.207031 -28.453125 C 29.597656 -28.015625 29.171875 -27.472656 28.925781 -26.832031 L 23.605469 -12.21875 Z M 21.449219 -13.003906 L 26.78125 -27.648438 C 27.1875 -28.722656 27.882812 -29.609375 28.867188 -30.316406 C 29.863281 -31.03125 30.890625 -31.390625 31.953125 -31.390625 L 44.136719 -31.390625 C 45.398438 -31.390625 46.339844 -30.933594 46.953125 -30.027344 C 47.566406 -29.128906 47.640625 -28.066406 47.175781 -26.847656 L 41.851562 -12.230469 C 41.492188 -11.195312 40.816406 -10.308594 39.832031 -9.578125 C 38.832031 -8.835938 37.800781 -8.464844 36.730469 -8.464844 L 24.546875 -8.464844 C 23.277344 -8.464844 22.335938 -8.933594 21.71875 -9.871094 C 21.125 -10.777344 21.035156 -11.816406 21.445312 -12.988281 Z M 21.449219 -13.003906 "/></g></g></g></g></g><g transform="matrix(1, 0, 0, 1, 102, 164)"><g clip-path="url(#e1a4ff3033)"><g clip-path="url(#ddcdc5ff8d)"><g fill="#1a1a1a" fill-opacity="1"><g transform="translate(5.216126, 42.073398)"><g><path d="M 1.027344 -19.5 C 1.207031 -20.535156 1.347656 -21.390625 1.453125 -22.0625 C 1.558594 -22.714844 1.625 -23.1875 1.65625 -23.480469 L 1.671875 -23.601562 L 1.699219 -23.722656 C 2.082031 -25.347656 2.660156 -26.515625 3.429688 -27.226562 L 4.804688 -25.742188 L 3.371094 -27.171875 C 4.125 -27.925781 5.121094 -28.386719 6.363281 -28.554688 L 6.636719 -26.550781 L 6.277344 -28.542969 C 6.753906 -28.628906 7.359375 -28.691406 8.089844 -28.734375 C 8.773438 -28.769531 9.605469 -28.789062 10.578125 -28.789062 L 33.601562 -28.789062 L 33.304688 -26.507812 C 33.160156 -25.363281 33.019531 -24.410156 32.890625 -23.644531 C 32.753906 -22.84375 32.621094 -22.214844 32.496094 -21.753906 C 32.09375 -20.246094 31.464844 -19.15625 30.605469 -18.484375 L 29.355469 -20.074219 L 30.671875 -18.539062 C 30.214844 -18.144531 29.65625 -17.84375 29 -17.632812 C 28.484375 -17.46875 27.878906 -17.34375 27.179688 -17.257812 L 27.152344 -17.253906 L 27.128906 -17.25 C 26.71875 -17.210938 26.128906 -17.179688 25.359375 -17.160156 C 24.625 -17.140625 23.671875 -17.132812 22.503906 -17.132812 L 12.332031 -17.132812 C 12.253906 -17.132812 12.195312 -17.132812 12.148438 -17.128906 L 12.136719 -17.125 C 12.15625 -17.128906 12.175781 -17.132812 12.199219 -17.140625 L 11.960938 -17.078125 L 11.710938 -17.078125 C 11.832031 -17.078125 11.953125 -17.121094 12.078125 -17.203125 L 10.953125 -18.886719 L 12.386719 -17.457031 C 12.488281 -17.558594 12.558594 -17.652344 12.601562 -17.738281 C 12.59375 -17.71875 12.574219 -17.671875 12.550781 -17.601562 L 12.503906 -17.464844 L 12.441406 -17.335938 C 12.488281 -17.429688 12.523438 -17.515625 12.539062 -17.585938 C 12.535156 -17.566406 12.527344 -17.53125 12.519531 -17.476562 C 12.480469 -17.238281 12.421875 -16.929688 12.34375 -16.546875 L 10.359375 -16.945312 L 12.367188 -16.667969 L 11.070312 -7.332031 C 10.925781 -6.246094 10.800781 -5.339844 10.691406 -4.609375 C 10.570312 -3.8125 10.445312 -3.175781 10.316406 -2.707031 C 10.042969 -1.605469 9.660156 -0.730469 9.175781 -0.0820312 L 9.113281 0 L 9.042969 0.078125 C 8.34375 0.835938 7.386719 1.371094 6.175781 1.6875 L 6.066406 1.71875 L 5.953125 1.734375 C 5.660156 1.773438 5.28125 1.816406 4.808594 1.855469 C 4.363281 1.890625 3.847656 1.929688 3.257812 1.964844 L 3.191406 1.96875 L 3.128906 1.96875 C 2.910156 1.96875 2.617188 1.976562 2.25 1.996094 C 1.824219 2.015625 1.289062 2.023438 0.648438 2.023438 L -6.503906 2.023438 L -3.050781 -1.429688 C -2.671875 -1.808594 -2.386719 -2.101562 -2.1875 -2.316406 C -2.019531 -2.5 -1.902344 -2.636719 -1.835938 -2.726562 L -1.75 -2.839844 L -1.648438 -2.941406 C -1.480469 -3.109375 -1.359375 -3.242188 -1.28125 -3.347656 C -1.273438 -3.359375 -1.265625 -3.371094 -1.257812 -3.378906 C -1.257812 -3.378906 -1.261719 -3.375 -1.265625 -3.367188 C -1.296875 -3.308594 -1.328125 -3.234375 -1.351562 -3.144531 L -1.265625 -3.449219 L -1.089844 -3.710938 C -1.1875 -3.566406 -1.25 -3.402344 -1.273438 -3.226562 C -1.246094 -3.421875 -1.207031 -3.625 -1.152344 -3.835938 L -1.136719 -3.910156 L -1.109375 -3.984375 C -1.09375 -4.035156 -1.074219 -4.257812 -1.046875 -4.660156 L -1.042969 -4.738281 L 1.023438 -19.46875 Z M 5.015625 -18.8125 L 3.023438 -19.15625 L 5.027344 -18.875 L 2.976562 -4.25 L 0.972656 -4.53125 L 2.992188 -4.40625 C 2.945312 -3.65625 2.855469 -3.089844 2.730469 -2.707031 L 0.808594 -3.347656 L 2.773438 -2.855469 C 2.753906 -2.777344 2.738281 -2.710938 2.730469 -2.65625 C 2.671875 -2.226562 2.519531 -1.832031 2.277344 -1.46875 L 0.59375 -2.589844 L 2.539062 -2.035156 C 2.371094 -1.445312 1.929688 -0.792969 1.214844 -0.078125 L -0.214844 -1.511719 L 1.402344 -0.296875 C 1.253906 -0.0976562 1.046875 0.144531 0.785156 0.429688 C 0.550781 0.683594 0.226562 1.015625 -0.1875 1.429688 L -1.617188 0 L -1.617188 -2.023438 L 0.648438 -2.023438 C 1.226562 -2.023438 1.703125 -2.03125 2.066406 -2.046875 C 2.492188 -2.066406 2.847656 -2.078125 3.128906 -2.078125 L 3.128906 -0.0546875 L 3.003906 -2.074219 C 3.566406 -2.109375 4.054688 -2.144531 4.472656 -2.179688 C 4.863281 -2.210938 5.167969 -2.242188 5.378906 -2.273438 L 5.667969 -0.269531 L 5.15625 -2.226562 C 5.601562 -2.34375 5.90625 -2.492188 6.066406 -2.667969 L 7.554688 -1.296875 L 5.9375 -2.507812 C 6.097656 -2.722656 6.253906 -3.144531 6.410156 -3.769531 C 6.5 -4.089844 6.589844 -4.570312 6.6875 -5.210938 C 6.792969 -5.917969 6.917969 -6.8125 7.0625 -7.886719 L 8.363281 -17.28125 L 8.375 -17.339844 C 8.445312 -17.679688 8.496094 -17.945312 8.527344 -18.140625 C 8.597656 -18.558594 8.695312 -18.890625 8.820312 -19.144531 L 10.632812 -18.238281 L 8.710938 -18.878906 C 8.917969 -19.503906 9.191406 -19.984375 9.523438 -20.320312 L 9.664062 -20.460938 L 9.832031 -20.570312 C 10.386719 -20.941406 11.015625 -21.128906 11.710938 -21.128906 L 11.710938 -19.101562 L 11.21875 -21.066406 C 11.523438 -21.144531 11.894531 -21.179688 12.332031 -21.179688 L 22.503906 -21.179688 C 23.636719 -21.179688 24.554688 -21.191406 25.257812 -21.207031 C 25.925781 -21.222656 26.417969 -21.246094 26.726562 -21.277344 L 26.929688 -19.265625 L 26.675781 -21.273438 C 27.128906 -21.328125 27.492188 -21.402344 27.769531 -21.492188 C 27.90625 -21.535156 27.996094 -21.574219 28.039062 -21.609375 L 28.070312 -21.640625 L 28.105469 -21.664062 C 28.136719 -21.6875 28.183594 -21.761719 28.246094 -21.882812 C 28.371094 -22.113281 28.484375 -22.425781 28.589844 -22.820312 C 28.683594 -23.152344 28.785156 -23.65625 28.898438 -24.328125 C 29.019531 -25.039062 29.152344 -25.9375 29.292969 -27.023438 L 31.300781 -26.765625 L 31.300781 -24.742188 L 10.578125 -24.742188 C 9.679688 -24.742188 8.925781 -24.726562 8.316406 -24.691406 C 7.75 -24.660156 7.3125 -24.617188 7 -24.558594 L 6.957031 -24.550781 L 6.910156 -24.542969 C 6.570312 -24.5 6.34375 -24.421875 6.234375 -24.308594 L 6.207031 -24.28125 L 6.175781 -24.253906 C 6.140625 -24.222656 6.085938 -24.121094 6.007812 -23.957031 C 5.875 -23.664062 5.753906 -23.277344 5.640625 -22.792969 L 3.667969 -23.257812 L 5.679688 -23.035156 C 5.640625 -22.679688 5.566406 -22.144531 5.453125 -21.433594 C 5.34375 -20.738281 5.199219 -19.867188 5.015625 -18.8125 Z M 5.015625 -18.8125 "/></g></g></g></g><g fill="#1a1a1a" fill-opacity="1"><g transform="translate(36.188097, 42.073398)"><g><path d="M 24.609375 -28.789062 C 26.300781 -28.789062 27.527344 -28.726562 28.285156 -28.601562 L 27.953125 -26.605469 L 28.226562 -28.609375 C 29.417969 -28.445312 30.3125 -28.105469 30.90625 -27.585938 L 29.570312 -26.066406 L 30.695312 -27.75 C 31.835938 -26.988281 32.40625 -25.671875 32.40625 -23.796875 L 32.40625 -23.472656 C 32.40625 -23.234375 32.375 -22.957031 32.3125 -22.644531 L 30.328125 -23.042969 L 32.351562 -23.042969 C 32.351562 -22.644531 32.3125 -22.082031 32.230469 -21.363281 C 32.15625 -20.691406 32.046875 -19.855469 31.898438 -18.859375 L 31.035156 -12.828125 L 30.28125 -7.332031 L 28.277344 -7.609375 L 30.289062 -7.386719 C 30.136719 -6.03125 29.976562 -4.921875 29.804688 -4.054688 C 29.621094 -3.144531 29.441406 -2.445312 29.261719 -1.953125 L 27.359375 -2.644531 L 29.304688 -2.089844 C 28.96875 -0.914062 28.378906 0.0078125 27.53125 0.675781 L 27.5 0.695312 L 27.472656 0.71875 C 26.851562 1.171875 26.011719 1.515625 24.949219 1.757812 L 24.824219 1.785156 L 24.699219 1.796875 C 24.316406 1.835938 23.679688 1.882812 22.792969 1.9375 C 21.886719 1.996094 20.726562 2.023438 19.320312 2.023438 L 7.609375 2.023438 C 6.269531 2.023438 5.164062 1.996094 4.292969 1.9375 C 3.449219 1.882812 2.820312 1.835938 2.40625 1.800781 L 2.261719 1.785156 L 2.121094 1.753906 C 0.957031 1.476562 0.0703125 1 -0.53125 0.328125 L -0.601562 0.25 L -0.664062 0.164062 C -1.210938 -0.585938 -1.484375 -1.613281 -1.484375 -2.914062 L -1.484375 -3.332031 L -1.476562 -3.429688 C -1.402344 -4.199219 -1.238281 -5.671875 -0.984375 -7.84375 L -0.980469 -7.886719 L -0.648438 -9.929688 C -0.503906 -10.894531 -0.378906 -11.707031 -0.269531 -12.367188 C -0.167969 -12.976562 -0.101562 -13.425781 -0.0703125 -13.714844 L -0.0585938 -13.800781 L -0.0429688 -13.886719 C 0.289062 -15.546875 0.835938 -16.753906 1.589844 -17.511719 C 2.425781 -18.347656 3.523438 -18.84375 4.886719 -19.007812 L 5.125 -17 L 4.839844 -19.003906 C 5.691406 -19.125 7.171875 -19.183594 9.28125 -19.183594 L 20.558594 -19.183594 C 20.703125 -19.183594 20.816406 -19.1875 20.902344 -19.199219 C 21.140625 -19.226562 21.3125 -19.238281 21.421875 -19.238281 L 21.421875 -17.214844 L 21.027344 -19.199219 C 20.804688 -19.15625 20.625 -19.058594 20.476562 -18.914062 C 20.191406 -18.628906 20.046875 -18.3125 20.046875 -17.96875 L 20.046875 -18.296875 L 20.152344 -18.609375 C 20.167969 -18.660156 20.1875 -18.882812 20.214844 -19.285156 L 22.234375 -19.15625 L 22.234375 -17.132812 L 10.359375 -17.132812 C 9.371094 -17.132812 8.535156 -17.140625 7.851562 -17.160156 C 7.128906 -17.179688 6.578125 -17.210938 6.199219 -17.253906 L 6.15625 -17.257812 L 6.113281 -17.265625 C 4.652344 -17.488281 3.558594 -18.0625 2.832031 -18.984375 L 2.773438 -19.0625 L 2.722656 -19.140625 C 2.222656 -19.921875 1.902344 -21.050781 1.761719 -22.53125 L 1.753906 -22.625 L 1.753906 -22.71875 C 1.753906 -23.019531 1.746094 -23.429688 1.726562 -23.945312 C 1.710938 -24.507812 1.699219 -25.144531 1.699219 -25.847656 L 1.699219 -28.789062 Z M 24.609375 -24.742188 L 3.722656 -24.742188 L 3.722656 -26.765625 L 5.746094 -26.765625 L 5.746094 -25.847656 C 5.746094 -25.1875 5.757812 -24.597656 5.773438 -24.082031 C 5.792969 -23.519531 5.800781 -23.066406 5.800781 -22.71875 L 3.777344 -22.71875 L 5.792969 -22.90625 C 5.871094 -22.082031 5.980469 -21.558594 6.128906 -21.332031 L 4.425781 -20.238281 L 6.015625 -21.488281 C 6.039062 -21.472656 6.066406 -21.453125 6.105469 -21.4375 C 6.253906 -21.363281 6.464844 -21.304688 6.730469 -21.265625 L 6.421875 -19.265625 L 6.644531 -21.277344 C 6.914062 -21.246094 7.351562 -21.222656 7.960938 -21.207031 C 8.609375 -21.191406 9.40625 -21.179688 10.359375 -21.179688 L 24.386719 -21.179688 L 24.253906 -19.03125 C 24.207031 -18.28125 24.117188 -17.710938 23.992188 -17.328125 L 22.070312 -17.96875 L 24.09375 -17.96875 C 24.09375 -17.195312 23.84375 -16.554688 23.339844 -16.054688 C 22.90625 -15.621094 22.402344 -15.347656 21.820312 -15.230469 L 21.625 -15.191406 L 21.421875 -15.191406 C 21.460938 -15.191406 21.492188 -15.191406 21.519531 -15.195312 C 21.519531 -15.195312 21.515625 -15.191406 21.503906 -15.191406 C 21.46875 -15.1875 21.417969 -15.183594 21.351562 -15.175781 C 21.113281 -15.148438 20.851562 -15.136719 20.558594 -15.136719 L 9.28125 -15.136719 C 7.363281 -15.136719 6.074219 -15.089844 5.414062 -14.996094 L 5.367188 -14.988281 C 4.929688 -14.9375 4.625 -14.824219 4.453125 -14.648438 C 4.40625 -14.605469 4.347656 -14.488281 4.269531 -14.304688 C 4.140625 -13.996094 4.027344 -13.59375 3.925781 -13.09375 L 1.941406 -13.492188 L 3.953125 -13.265625 C 3.914062 -12.90625 3.835938 -12.386719 3.722656 -11.703125 C 3.617188 -11.066406 3.492188 -10.257812 3.347656 -9.28125 L 3.023438 -7.285156 L 1.023438 -7.609375 L 3.035156 -7.375 C 2.785156 -5.230469 2.625 -3.789062 2.554688 -3.046875 L 0.539062 -3.238281 L 2.5625 -3.238281 L 2.5625 -2.914062 C 2.5625 -2.632812 2.582031 -2.410156 2.621094 -2.246094 C 2.628906 -2.203125 2.640625 -2.171875 2.648438 -2.152344 C 2.640625 -2.167969 2.628906 -2.1875 2.609375 -2.214844 L 0.972656 -1.023438 L 2.476562 -2.378906 C 2.460938 -2.394531 2.453125 -2.402344 2.445312 -2.40625 C 2.464844 -2.394531 2.488281 -2.378906 2.523438 -2.363281 C 2.65625 -2.296875 2.832031 -2.238281 3.058594 -2.183594 L 2.589844 -0.214844 L 2.773438 -2.230469 C 3.152344 -2.195312 3.746094 -2.152344 4.558594 -2.101562 C 5.339844 -2.050781 6.359375 -2.023438 7.609375 -2.023438 L 19.320312 -2.023438 C 20.644531 -2.023438 21.71875 -2.050781 22.539062 -2.101562 C 23.375 -2.152344 23.964844 -2.195312 24.296875 -2.230469 L 24.5 -0.214844 L 24.050781 -2.1875 C 24.570312 -2.308594 24.917969 -2.429688 25.089844 -2.554688 L 26.28125 -0.917969 L 25.03125 -2.507812 C 25.191406 -2.632812 25.316406 -2.863281 25.414062 -3.199219 L 25.433594 -3.269531 L 25.457031 -3.335938 C 25.566406 -3.636719 25.691406 -4.140625 25.832031 -4.847656 C 25.984375 -5.601562 26.128906 -6.59375 26.265625 -7.832031 L 26.269531 -7.859375 L 27.027344 -13.398438 L 27.894531 -19.453125 C 28.035156 -20.402344 28.140625 -21.1875 28.207031 -21.808594 C 28.273438 -22.382812 28.304688 -22.792969 28.304688 -23.042969 L 28.304688 -23.242188 L 28.34375 -23.4375 C 28.351562 -23.480469 28.355469 -23.511719 28.359375 -23.535156 C 28.359375 -23.523438 28.359375 -23.503906 28.359375 -23.472656 L 28.359375 -23.796875 C 28.359375 -24.140625 28.328125 -24.390625 28.273438 -24.546875 C 28.269531 -24.558594 28.265625 -24.566406 28.265625 -24.566406 C 28.269531 -24.558594 28.277344 -24.546875 28.289062 -24.53125 C 28.328125 -24.476562 28.382812 -24.425781 28.449219 -24.378906 L 28.339844 -24.453125 L 28.238281 -24.542969 C 28.289062 -24.5 28.332031 -24.464844 28.371094 -24.445312 C 28.363281 -24.449219 28.34375 -24.457031 28.3125 -24.46875 C 28.160156 -24.519531 27.949219 -24.5625 27.679688 -24.597656 L 27.648438 -24.601562 L 27.621094 -24.609375 C 27.082031 -24.699219 26.078125 -24.742188 24.609375 -24.742188 Z M 10.253906 -7.582031 C 10.0625 -7.582031 9.925781 -7.578125 9.835938 -7.574219 C 9.824219 -7.570312 9.816406 -7.570312 9.8125 -7.570312 C 9.824219 -7.570312 9.835938 -7.574219 9.851562 -7.574219 C 10.015625 -7.601562 10.179688 -7.65625 10.347656 -7.742188 L 9.921875 -7.527344 L 9.445312 -7.527344 C 9.746094 -7.527344 10.023438 -7.597656 10.273438 -7.742188 C 10.367188 -7.792969 10.441406 -7.847656 10.496094 -7.90625 C 10.71875 -8.125 10.855469 -8.34375 10.914062 -8.558594 C 10.894531 -8.492188 10.875 -8.378906 10.851562 -8.21875 L 8.851562 -8.527344 L 10.875 -8.527344 C 10.875 -8.179688 10.800781 -7.710938 10.652344 -7.117188 L 8.6875 -7.609375 L 8.6875 -9.632812 L 19.265625 -9.632812 C 19.40625 -9.632812 19.519531 -9.636719 19.609375 -9.648438 C 19.84375 -9.671875 20.019531 -9.6875 20.128906 -9.6875 L 20.128906 -7.664062 L 19.796875 -9.660156 C 19.664062 -9.636719 19.527344 -9.585938 19.378906 -9.5 C 18.996094 -9.28125 18.730469 -8.953125 18.585938 -8.519531 L 18.738281 -8.972656 L 19.074219 -9.308594 C 18.914062 -9.148438 18.800781 -8.988281 18.734375 -8.820312 L 18.734375 -8.816406 C 18.742188 -8.84375 18.75 -8.871094 18.757812 -8.910156 L 18.777344 -8.984375 L 18.800781 -9.058594 C 18.820312 -9.105469 18.839844 -9.332031 18.863281 -9.730469 L 20.882812 -9.605469 L 20.882812 -7.582031 Z M 10.253906 -11.628906 L 23.039062 -11.628906 L 22.902344 -9.480469 C 22.855469 -8.726562 22.769531 -8.160156 22.640625 -7.777344 L 20.722656 -8.417969 L 22.683594 -7.925781 C 22.523438 -7.277344 22.273438 -6.785156 21.9375 -6.449219 L 20.507812 -7.878906 L 22.425781 -7.238281 C 22.246094 -6.695312 21.898438 -6.277344 21.390625 -5.988281 C 21.117188 -5.832031 20.808594 -5.722656 20.460938 -5.667969 L 20.296875 -5.640625 L 20.128906 -5.640625 C 20.164062 -5.640625 20.195312 -5.640625 20.222656 -5.640625 C 20.222656 -5.640625 20.21875 -5.640625 20.210938 -5.640625 C 20.175781 -5.636719 20.121094 -5.632812 20.054688 -5.625 C 19.820312 -5.597656 19.554688 -5.585938 19.265625 -5.585938 L 6.097656 -5.585938 L 6.726562 -8.101562 C 6.765625 -8.269531 6.796875 -8.40625 6.816406 -8.515625 C 6.824219 -8.546875 6.828125 -8.574219 6.828125 -8.589844 C 6.828125 -8.578125 6.828125 -8.554688 6.828125 -8.527344 L 6.828125 -8.679688 L 6.851562 -8.835938 C 6.898438 -9.140625 6.949219 -9.394531 7.003906 -9.601562 C 7.132812 -10.085938 7.34375 -10.472656 7.636719 -10.765625 C 8.175781 -11.304688 8.777344 -11.574219 9.445312 -11.574219 L 9.445312 -9.550781 L 8.539062 -11.363281 C 8.816406 -11.5 9.160156 -11.585938 9.566406 -11.613281 C 9.746094 -11.625 9.972656 -11.628906 10.253906 -11.628906 Z M 10.253906 -11.628906 "/></g></g></g><g fill="#1a1a1a" fill-opacity="1"><g transform="translate(67.052145, 42.073398)"><g><path d="M 10.683594 -28.734375 L 33.285156 -28.734375 L 32.980469 -26.445312 C 32.832031 -25.339844 32.695312 -24.410156 32.5625 -23.664062 C 32.425781 -22.882812 32.296875 -22.265625 32.171875 -21.808594 L 30.21875 -22.339844 L 32.203125 -21.929688 C 31.890625 -20.4375 31.3125 -19.324219 30.457031 -18.59375 C 29.558594 -17.804688 28.238281 -17.339844 26.503906 -17.195312 L 26.417969 -17.1875 L 26.335938 -17.1875 C 25.992188 -17.1875 25.5 -17.179688 24.851562 -17.160156 L 22.265625 -17.078125 L 12.574219 -17.078125 C 12.34375 -17.078125 12.117188 -17.09375 11.890625 -17.121094 C 11.832031 -17.128906 11.789062 -17.132812 11.765625 -17.132812 C 11.707031 -17.132812 11.667969 -17.132812 11.652344 -17.128906 C 11.746094 -17.144531 11.851562 -17.179688 11.96875 -17.238281 L 11.539062 -17.027344 L 11.0625 -17.027344 C 11.40625 -17.027344 11.722656 -17.167969 12.007812 -17.457031 C 12.109375 -17.558594 12.179688 -17.652344 12.226562 -17.738281 C 12.214844 -17.71875 12.195312 -17.671875 12.171875 -17.601562 L 10.253906 -18.238281 L 12.277344 -18.238281 C 12.277344 -17.925781 12.210938 -17.433594 12.074219 -16.761719 L 10.089844 -17.160156 L 12.09375 -16.878906 L 10.746094 -7.273438 L 8.742188 -7.554688 L 8.742188 -9.578125 L 30.578125 -9.578125 L 30.285156 -7.296875 C 30.136719 -6.15625 30 -5.195312 29.867188 -4.417969 C 29.730469 -3.59375 29.601562 -2.949219 29.472656 -2.488281 L 27.523438 -3.023438 L 29.5 -2.597656 C 29.183594 -1.121094 28.566406 -0.015625 27.652344 0.71875 C 26.832031 1.363281 25.683594 1.757812 24.214844 1.90625 C 23.804688 1.945312 23.214844 1.976562 22.445312 1.996094 C 21.710938 2.015625 20.773438 2.023438 19.644531 2.023438 L 7.554688 2.023438 C 6.214844 2.023438 5.109375 1.996094 4.238281 1.9375 C 3.394531 1.882812 2.765625 1.835938 2.351562 1.800781 L 2.253906 1.789062 L 2.15625 1.773438 C 0.859375 1.523438 -0.109375 0.941406 -0.746094 0.0195312 L -0.828125 -0.0976562 L -0.894531 -0.226562 C -1.070312 -0.585938 -1.214844 -0.992188 -1.324219 -1.453125 C -1.429688 -1.910156 -1.484375 -2.398438 -1.484375 -2.914062 L -1.484375 -3.382812 L -1.476562 -3.476562 C -1.4375 -3.894531 -1.371094 -4.46875 -1.277344 -5.195312 C -1.1875 -5.902344 -1.070312 -6.78125 -0.925781 -7.832031 L -0.917969 -7.886719 C -0.8125 -8.523438 -0.6875 -9.316406 -0.542969 -10.257812 C -0.402344 -11.1875 -0.265625 -12.285156 -0.121094 -13.550781 L -0.121094 -13.578125 L -0.117188 -13.609375 C 0.0664062 -14.910156 0.226562 -16.042969 0.375 -17.003906 C 0.511719 -17.929688 0.617188 -18.707031 0.6875 -19.328125 L 0.691406 -19.382812 L 0.703125 -19.4375 C 0.878906 -20.507812 1.023438 -21.390625 1.128906 -22.082031 C 1.230469 -22.75 1.300781 -23.242188 1.332031 -23.566406 L 1.347656 -23.714844 L 1.382812 -23.855469 C 1.769531 -25.398438 2.34375 -26.523438 3.105469 -27.226562 L 3.132812 -27.253906 L 3.160156 -27.277344 C 3.980469 -27.976562 5.058594 -28.40625 6.40625 -28.5625 L 6.636719 -26.550781 L 6.351562 -28.554688 C 7.203125 -28.675781 8.644531 -28.734375 10.683594 -28.734375 Z M 10.683594 -24.6875 C 8.839844 -24.6875 7.585938 -24.640625 6.921875 -24.546875 L 6.898438 -24.542969 L 6.871094 -24.539062 C 6.34375 -24.480469 5.988281 -24.367188 5.796875 -24.203125 L 4.480469 -25.742188 L 5.851562 -24.253906 C 5.808594 -24.214844 5.75 -24.113281 5.671875 -23.953125 C 5.539062 -23.679688 5.421875 -23.320312 5.308594 -22.875 L 3.347656 -23.367188 L 5.359375 -23.164062 C 5.320312 -22.769531 5.242188 -22.203125 5.128906 -21.464844 C 5.019531 -20.757812 4.875 -19.859375 4.695312 -18.769531 L 2.699219 -19.101562 L 4.710938 -18.878906 C 4.632812 -18.207031 4.523438 -17.378906 4.375 -16.398438 C 4.234375 -15.453125 4.070312 -14.335938 3.894531 -13.050781 L 1.890625 -13.328125 L 3.898438 -13.105469 C 3.753906 -11.785156 3.605469 -10.632812 3.457031 -9.652344 C 3.3125 -8.691406 3.183594 -7.878906 3.074219 -7.222656 L 1.078125 -7.554688 L 3.085938 -7.277344 C 2.941406 -6.242188 2.824219 -5.375 2.734375 -4.679688 C 2.648438 -4.003906 2.589844 -3.480469 2.554688 -3.109375 L 0.539062 -3.292969 L 2.5625 -3.292969 L 2.5625 -2.914062 C 2.5625 -2.710938 2.582031 -2.53125 2.617188 -2.378906 C 2.652344 -2.226562 2.691406 -2.113281 2.726562 -2.039062 L 0.917969 -1.132812 L 2.582031 -2.285156 C 2.570312 -2.300781 2.5625 -2.3125 2.550781 -2.320312 L 2.5625 -2.3125 C 2.640625 -2.269531 2.757812 -2.234375 2.914062 -2.203125 L 2.535156 -0.214844 L 2.71875 -2.230469 C 3.097656 -2.195312 3.691406 -2.152344 4.503906 -2.101562 C 5.285156 -2.050781 6.304688 -2.023438 7.554688 -2.023438 L 19.644531 -2.023438 C 20.742188 -2.023438 21.640625 -2.03125 22.34375 -2.050781 C 23.011719 -2.066406 23.503906 -2.089844 23.8125 -2.121094 C 24.5 -2.191406 24.9375 -2.296875 25.125 -2.445312 C 25.289062 -2.574219 25.425781 -2.910156 25.542969 -3.445312 L 25.554688 -3.5 L 25.570312 -3.554688 C 25.660156 -3.882812 25.761719 -4.394531 25.875 -5.082031 C 25.996094 -5.8125 26.128906 -6.722656 26.269531 -7.8125 L 28.277344 -7.554688 L 28.277344 -5.53125 L 6.414062 -5.53125 L 8.09375 -17.5 L 8.105469 -17.558594 C 8.1875 -17.964844 8.230469 -18.195312 8.230469 -18.238281 L 8.230469 -18.566406 L 8.332031 -18.878906 C 8.542969 -19.503906 8.8125 -19.984375 9.144531 -20.320312 C 9.648438 -20.820312 10.289062 -21.074219 11.0625 -21.074219 L 11.0625 -19.050781 L 10.15625 -20.859375 C 10.585938 -21.074219 11.121094 -21.179688 11.765625 -21.179688 C 11.957031 -21.179688 12.164062 -21.167969 12.394531 -21.136719 C 12.453125 -21.128906 12.511719 -21.128906 12.574219 -21.128906 L 22.234375 -21.128906 L 22.234375 -19.101562 L 22.167969 -21.125 L 24.742188 -21.207031 C 25.425781 -21.226562 25.957031 -21.234375 26.335938 -21.234375 L 26.335938 -19.210938 L 26.167969 -21.226562 C 27.019531 -21.300781 27.570312 -21.445312 27.824219 -21.664062 C 27.863281 -21.699219 27.910156 -21.773438 27.96875 -21.894531 C 28.074219 -22.109375 28.164062 -22.394531 28.238281 -22.75 L 28.25 -22.8125 L 28.265625 -22.875 C 28.359375 -23.207031 28.460938 -23.707031 28.578125 -24.363281 C 28.699219 -25.054688 28.828125 -25.925781 28.96875 -26.980469 L 30.976562 -26.710938 L 30.976562 -24.6875 Z M 10.683594 -24.6875 "/></g></g></g><g fill="#1a1a1a" fill-opacity="1"><g transform="translate(97.700368, 42.073398)"><g><path d="M 11.546875 -28.734375 L 25.742188 -28.734375 C 26.464844 -28.734375 27.023438 -28.714844 27.421875 -28.667969 L 27.199219 -26.65625 L 27.257812 -28.679688 C 28.949219 -28.628906 30.191406 -28.238281 30.992188 -27.503906 L 29.625 -26.011719 L 30.800781 -27.65625 C 31.871094 -26.894531 32.40625 -25.609375 32.40625 -23.796875 L 32.40625 -23.285156 C 32.40625 -22.976562 32.378906 -22.65625 32.324219 -22.332031 L 30.328125 -22.664062 L 32.339844 -22.441406 C 32.300781 -22.109375 32.246094 -21.648438 32.175781 -21.066406 L 31.898438 -18.871094 L 31.570312 -16.835938 L 29.570312 -17.160156 L 31.578125 -16.898438 C 31.28125 -14.617188 31.03125 -13.09375 30.828125 -12.328125 L 28.871094 -12.84375 L 30.847656 -12.417969 C 30.550781 -11.023438 30.027344 -9.949219 29.277344 -9.199219 L 29.25 -9.171875 L 29.222656 -9.148438 C 28.40625 -8.390625 27.265625 -7.910156 25.800781 -7.707031 C 25.039062 -7.589844 23.652344 -7.527344 21.640625 -7.527344 L 9.496094 -7.527344 C 9.914062 -7.527344 10.246094 -7.652344 10.496094 -7.90625 C 10.6875 -8.09375 10.8125 -8.285156 10.878906 -8.480469 C 10.867188 -8.453125 10.855469 -8.390625 10.835938 -8.292969 L 8.851562 -8.6875 L 10.875 -8.6875 C 10.875 -8.375 10.808594 -7.882812 10.671875 -7.210938 L 8.6875 -7.609375 L 8.6875 -9.632812 L 20.558594 -9.632812 C 22.808594 -9.632812 24.28125 -9.566406 24.980469 -9.4375 L 24.609375 -7.445312 L 24.859375 -9.457031 C 26.289062 -9.277344 27.339844 -8.742188 28.007812 -7.851562 L 26.386719 -6.636719 L 27.820312 -8.070312 C 28.578125 -7.3125 29.007812 -6.082031 29.109375 -4.386719 L 27.089844 -4.261719 L 29.066406 -4.703125 C 29.167969 -4.234375 29.222656 -3.648438 29.222656 -2.941406 L 29.222656 2.023438 L 6.800781 2.023438 C 5.667969 2.023438 4.726562 1.996094 3.972656 1.9375 C 3.261719 1.882812 2.703125 1.835938 2.300781 1.800781 L 2.109375 1.78125 L 1.925781 1.730469 C 0.707031 1.382812 -0.203125 0.773438 -0.800781 -0.0898438 L -0.882812 -0.207031 L -0.945312 -0.335938 C -1.304688 -1.050781 -1.484375 -1.910156 -1.484375 -2.914062 L -1.484375 -3.402344 L -1.480469 -3.457031 C -1.441406 -4.15625 -1.277344 -5.628906 -0.980469 -7.871094 L 0.644531 -19.464844 L 1.300781 -23.40625 L 1.308594 -23.4375 C 1.640625 -25.097656 2.203125 -26.324219 2.992188 -27.117188 L 3.09375 -27.210938 C 3.984375 -27.992188 5.105469 -28.457031 6.460938 -28.613281 L 6.691406 -26.605469 L 6.328125 -28.59375 C 6.84375 -28.6875 7.566406 -28.734375 8.5 -28.734375 Z M 11.546875 -24.6875 L 8.5 -24.6875 C 7.8125 -24.6875 7.328125 -24.664062 7.054688 -24.613281 L 6.988281 -24.601562 L 6.921875 -24.59375 C 6.40625 -24.535156 6.015625 -24.390625 5.757812 -24.164062 L 4.425781 -25.6875 L 5.855469 -24.253906 C 5.789062 -24.1875 5.710938 -24.050781 5.625 -23.851562 C 5.492188 -23.539062 5.375 -23.136719 5.277344 -22.644531 L 3.292969 -23.042969 L 5.289062 -22.710938 L 4.640625 -18.824219 L 2.644531 -19.15625 L 4.648438 -18.875 L 3.03125 -7.347656 C 2.75 -5.203125 2.59375 -3.832031 2.558594 -3.234375 L 0.539062 -3.347656 L 2.5625 -3.347656 L 2.5625 -2.914062 C 2.5625 -2.550781 2.601562 -2.292969 2.671875 -2.144531 L 0.863281 -1.242188 L 2.527344 -2.394531 C 2.535156 -2.382812 2.554688 -2.367188 2.59375 -2.34375 C 2.699219 -2.277344 2.847656 -2.214844 3.039062 -2.160156 L 2.480469 -0.214844 L 2.664062 -2.230469 C 3.050781 -2.195312 3.589844 -2.152344 4.285156 -2.097656 C 4.933594 -2.046875 5.773438 -2.023438 6.800781 -2.023438 L 27.199219 -2.023438 L 27.199219 0 L 25.175781 0 L 25.175781 -2.941406 C 25.175781 -3.351562 25.152344 -3.644531 25.113281 -3.824219 L 25.078125 -3.980469 L 25.070312 -4.140625 C 25.042969 -4.582031 24.992188 -4.925781 24.917969 -5.171875 C 24.898438 -5.242188 24.882812 -5.289062 24.867188 -5.320312 C 24.882812 -5.289062 24.914062 -5.25 24.957031 -5.207031 L 24.855469 -5.308594 L 24.769531 -5.421875 C 24.800781 -5.382812 24.832031 -5.347656 24.867188 -5.324219 L 24.863281 -5.320312 C 24.753906 -5.371094 24.585938 -5.410156 24.355469 -5.4375 L 24.296875 -5.445312 L 24.234375 -5.457031 C 23.78125 -5.542969 22.558594 -5.585938 20.558594 -5.585938 L 6.21875 -5.585938 L 6.703125 -8.003906 C 6.785156 -8.414062 6.828125 -8.640625 6.828125 -8.6875 L 6.828125 -8.886719 L 6.867188 -9.085938 C 7.019531 -9.84375 7.273438 -10.40625 7.636719 -10.765625 C 8.175781 -11.304688 8.792969 -11.574219 9.496094 -11.574219 L 21.640625 -11.574219 C 23.441406 -11.574219 24.644531 -11.621094 25.25 -11.71875 C 25.871094 -11.804688 26.277344 -11.9375 26.46875 -12.113281 L 27.84375 -10.632812 L 26.414062 -12.0625 C 26.601562 -12.246094 26.757812 -12.648438 26.890625 -13.265625 L 26.914062 -13.359375 C 27.070312 -13.960938 27.289062 -15.3125 27.566406 -17.421875 L 27.570312 -17.453125 L 27.898438 -19.480469 L 29.894531 -19.15625 L 27.886719 -19.40625 L 28.15625 -21.566406 C 28.226562 -22.132812 28.28125 -22.574219 28.316406 -22.886719 L 28.332031 -22.996094 C 28.347656 -23.101562 28.359375 -23.199219 28.359375 -23.285156 L 28.359375 -23.796875 C 28.359375 -24.132812 28.332031 -24.375 28.277344 -24.535156 C 28.273438 -24.546875 28.269531 -24.554688 28.269531 -24.558594 C 28.273438 -24.546875 28.28125 -24.535156 28.289062 -24.523438 C 28.328125 -24.464844 28.382812 -24.410156 28.449219 -24.363281 L 28.347656 -24.433594 L 28.257812 -24.519531 C 28.292969 -24.488281 28.320312 -24.46875 28.335938 -24.457031 C 28.300781 -24.476562 28.246094 -24.496094 28.171875 -24.515625 C 27.917969 -24.582031 27.574219 -24.621094 27.136719 -24.636719 L 27.054688 -24.636719 L 26.972656 -24.648438 C 26.726562 -24.675781 26.3125 -24.6875 25.742188 -24.6875 Z M 11.65625 -17.132812 C 11.425781 -17.132812 11.253906 -17.128906 11.140625 -17.125 C 11.125 -17.121094 11.109375 -17.121094 11.101562 -17.121094 C 11.105469 -17.121094 11.113281 -17.121094 11.121094 -17.125 C 11.292969 -17.148438 11.464844 -17.203125 11.644531 -17.292969 C 11.746094 -17.34375 11.832031 -17.398438 11.898438 -17.453125 C 11.890625 -17.449219 11.875 -17.429688 11.847656 -17.402344 L 10.414062 -18.832031 L 12.226562 -17.929688 C 12.179688 -17.835938 12.128906 -17.722656 12.078125 -17.597656 L 10.199219 -18.347656 L 12.222656 -18.347656 C 12.222656 -18.09375 12.160156 -17.585938 12.035156 -16.828125 L 10.039062 -17.160156 L 10.039062 -19.183594 L 21.207031 -19.183594 L 21.207031 -17.160156 L 20.957031 -19.167969 C 20.785156 -19.148438 20.609375 -19.042969 20.425781 -18.863281 C 20.136719 -18.574219 19.992188 -18.257812 19.992188 -17.914062 L 19.992188 -18.199219 L 20.070312 -18.472656 C 20.101562 -18.582031 20.132812 -18.855469 20.160156 -19.285156 L 22.179688 -19.15625 L 22.179688 -17.132812 Z M 11.65625 -21.179688 L 24.332031 -21.179688 L 24.199219 -19.03125 C 24.152344 -18.308594 24.074219 -17.753906 23.964844 -17.359375 L 22.015625 -17.914062 L 24.042969 -17.914062 C 24.042969 -17.140625 23.789062 -16.503906 23.285156 -16 C 22.816406 -15.527344 22.207031 -15.246094 21.457031 -15.152344 L 21.332031 -15.136719 L 7.648438 -15.136719 L 8.039062 -17.492188 C 8.128906 -18.03125 8.175781 -18.316406 8.175781 -18.347656 L 8.175781 -18.738281 L 8.320312 -19.097656 C 8.414062 -19.332031 8.507812 -19.542969 8.605469 -19.738281 L 8.75 -20.03125 L 8.984375 -20.265625 C 9.28125 -20.5625 9.566406 -20.78125 9.832031 -20.914062 C 10.117188 -21.054688 10.472656 -21.140625 10.902344 -21.164062 C 11.097656 -21.175781 11.347656 -21.179688 11.65625 -21.179688 Z M 11.65625 -21.179688 "/></g></g></g><g fill="#ffffff" fill-opacity="1"><g transform="translate(5.216126, 42.073398)"><g><path d="M 3.015625 -19.15625 C 3.203125 -20.195312 3.347656 -21.0625 3.453125 -21.75 C 3.554688 -22.4375 3.628906 -22.941406 3.671875 -23.265625 C 3.960938 -24.484375 4.335938 -25.3125 4.796875 -25.75 C 5.234375 -26.175781 5.847656 -26.441406 6.640625 -26.546875 C 7.035156 -26.617188 7.554688 -26.671875 8.203125 -26.703125 C 8.847656 -26.742188 9.640625 -26.765625 10.578125 -26.765625 L 31.296875 -26.765625 C 31.160156 -25.648438 31.023438 -24.722656 30.890625 -23.984375 C 30.765625 -23.242188 30.648438 -22.675781 30.546875 -22.28125 C 30.253906 -21.207031 29.859375 -20.472656 29.359375 -20.078125 C 29.109375 -19.859375 28.785156 -19.6875 28.390625 -19.5625 C 27.992188 -19.4375 27.507812 -19.335938 26.9375 -19.265625 C 26.570312 -19.234375 26.03125 -19.207031 25.3125 -19.1875 C 24.59375 -19.164062 23.65625 -19.15625 22.5 -19.15625 L 13.328125 -19.15625 C 12.929688 -19.15625 12.597656 -19.15625 12.328125 -19.15625 C 12.054688 -19.15625 11.851562 -19.140625 11.71875 -19.109375 C 11.425781 -19.109375 11.171875 -19.035156 10.953125 -18.890625 C 10.847656 -18.785156 10.738281 -18.566406 10.625 -18.234375 C 10.59375 -18.171875 10.554688 -18.03125 10.515625 -17.8125 C 10.484375 -17.59375 10.429688 -17.304688 10.359375 -16.953125 L 9.0625 -7.609375 C 8.914062 -6.523438 8.789062 -5.625 8.6875 -4.90625 C 8.582031 -4.1875 8.472656 -3.628906 8.359375 -3.234375 C 8.148438 -2.367188 7.882812 -1.722656 7.5625 -1.296875 C 7.125 -0.828125 6.492188 -0.484375 5.671875 -0.265625 C 5.410156 -0.234375 5.066406 -0.195312 4.640625 -0.15625 C 4.210938 -0.125 3.707031 -0.0859375 3.125 -0.046875 C 2.875 -0.046875 2.550781 -0.0351562 2.15625 -0.015625 C 1.757812 -0.00390625 1.253906 0 0.640625 0 L -1.625 0 C -1.226562 -0.394531 -0.921875 -0.707031 -0.703125 -0.9375 C -0.484375 -1.175781 -0.320312 -1.367188 -0.21875 -1.515625 C 0.25 -1.984375 0.519531 -2.34375 0.59375 -2.59375 C 0.664062 -2.695312 0.707031 -2.8125 0.71875 -2.9375 C 0.738281 -3.0625 0.769531 -3.195312 0.8125 -3.34375 C 0.882812 -3.5625 0.9375 -3.957031 0.96875 -4.53125 Z M 3.015625 -19.15625 "/></g></g></g><g fill="#ffffff" fill-opacity="1"><g transform="translate(36.188097, 42.073398)"><g><path d="M 24.609375 -26.765625 C 26.191406 -26.765625 27.304688 -26.710938 27.953125 -26.609375 C 28.742188 -26.492188 29.285156 -26.3125 29.578125 -26.0625 C 30.117188 -25.707031 30.390625 -24.953125 30.390625 -23.796875 C 30.390625 -23.691406 30.390625 -23.582031 30.390625 -23.46875 C 30.390625 -23.363281 30.367188 -23.222656 30.328125 -23.046875 C 30.328125 -22.722656 30.289062 -22.234375 30.21875 -21.578125 C 30.144531 -20.929688 30.039062 -20.125 29.90625 -19.15625 L 29.03125 -13.109375 L 28.28125 -7.609375 C 28.132812 -6.316406 27.976562 -5.265625 27.8125 -4.453125 C 27.65625 -3.640625 27.503906 -3.035156 27.359375 -2.640625 C 27.140625 -1.890625 26.78125 -1.316406 26.28125 -0.921875 C 25.882812 -0.628906 25.289062 -0.394531 24.5 -0.21875 C 24.144531 -0.175781 23.535156 -0.128906 22.671875 -0.078125 C 21.804688 -0.0234375 20.691406 0 19.328125 0 L 7.609375 0 C 6.316406 0 5.253906 -0.0234375 4.421875 -0.078125 C 3.597656 -0.128906 2.988281 -0.175781 2.59375 -0.21875 C 1.832031 -0.394531 1.289062 -0.664062 0.96875 -1.03125 C 0.6875 -1.425781 0.546875 -2.054688 0.546875 -2.921875 L 0.546875 -3.234375 C 0.609375 -3.992188 0.769531 -5.453125 1.03125 -7.609375 L 1.34375 -9.609375 C 1.488281 -10.578125 1.613281 -11.382812 1.71875 -12.03125 C 1.832031 -12.675781 1.90625 -13.160156 1.9375 -13.484375 C 2.195312 -14.742188 2.554688 -15.609375 3.015625 -16.078125 C 3.523438 -16.585938 4.226562 -16.894531 5.125 -17 C 5.882812 -17.101562 7.269531 -17.15625 9.28125 -17.15625 L 20.5625 -17.15625 C 20.78125 -17.15625 20.96875 -17.164062 21.125 -17.1875 C 21.289062 -17.207031 21.390625 -17.21875 21.421875 -17.21875 C 21.609375 -17.25 21.769531 -17.335938 21.90625 -17.484375 C 22.019531 -17.585938 22.078125 -17.75 22.078125 -17.96875 C 22.148438 -18.1875 22.203125 -18.582031 22.234375 -19.15625 L 10.359375 -19.15625 C 9.390625 -19.15625 8.570312 -19.164062 7.90625 -19.1875 C 7.238281 -19.207031 6.742188 -19.234375 6.421875 -19.265625 C 5.484375 -19.410156 4.816406 -19.734375 4.421875 -20.234375 C 4.097656 -20.742188 3.882812 -21.570312 3.78125 -22.71875 C 3.78125 -23.039062 3.769531 -23.472656 3.75 -24.015625 C 3.726562 -24.554688 3.71875 -25.164062 3.71875 -25.84375 L 3.71875 -26.765625 Z M 10.25 -9.609375 C 9.78125 -9.609375 9.507812 -9.585938 9.4375 -9.546875 C 9.332031 -9.546875 9.207031 -9.476562 9.0625 -9.34375 C 8.988281 -9.269531 8.914062 -9 8.84375 -8.53125 C 8.84375 -8.34375 8.789062 -8.035156 8.6875 -7.609375 L 19.265625 -7.609375 C 19.484375 -7.609375 19.671875 -7.613281 19.828125 -7.625 C 19.992188 -7.644531 20.09375 -7.65625 20.125 -7.65625 C 20.34375 -7.695312 20.472656 -7.769531 20.515625 -7.875 C 20.578125 -7.945312 20.644531 -8.128906 20.71875 -8.421875 C 20.789062 -8.640625 20.847656 -9.035156 20.890625 -9.609375 Z M 10.25 -9.609375 "/></g></g></g><g fill="#ffffff" fill-opacity="1"><g transform="translate(67.052145, 42.073398)"><g><path d="M 10.6875 -26.71875 L 30.984375 -26.71875 C 30.835938 -25.632812 30.703125 -24.734375 30.578125 -24.015625 C 30.453125 -23.296875 30.332031 -22.738281 30.21875 -22.34375 C 30.007812 -21.300781 29.648438 -20.5625 29.140625 -20.125 C 28.566406 -19.625 27.632812 -19.320312 26.34375 -19.21875 C 25.976562 -19.21875 25.460938 -19.207031 24.796875 -19.1875 C 24.128906 -19.164062 23.273438 -19.140625 22.234375 -19.109375 L 12.578125 -19.109375 C 12.429688 -19.109375 12.285156 -19.113281 12.140625 -19.125 C 11.992188 -19.144531 11.867188 -19.15625 11.765625 -19.15625 C 11.441406 -19.15625 11.207031 -19.117188 11.0625 -19.046875 C 10.84375 -19.046875 10.679688 -18.992188 10.578125 -18.890625 C 10.472656 -18.785156 10.363281 -18.566406 10.25 -18.234375 C 10.25 -18.054688 10.195312 -17.695312 10.09375 -17.15625 L 8.75 -7.5625 L 28.28125 -7.5625 C 28.132812 -6.4375 28 -5.492188 27.875 -4.734375 C 27.75 -3.984375 27.632812 -3.410156 27.53125 -3.015625 C 27.3125 -2.015625 26.929688 -1.296875 26.390625 -0.859375 C 25.890625 -0.460938 25.097656 -0.210938 24.015625 -0.109375 C 23.648438 -0.0664062 23.109375 -0.0351562 22.390625 -0.015625 C 21.671875 -0.00390625 20.753906 0 19.640625 0 L 7.5625 0 C 6.257812 0 5.191406 -0.0234375 4.359375 -0.078125 C 3.535156 -0.128906 2.925781 -0.175781 2.53125 -0.21875 C 1.78125 -0.363281 1.242188 -0.671875 0.921875 -1.140625 C 0.804688 -1.347656 0.710938 -1.601562 0.640625 -1.90625 C 0.578125 -2.21875 0.546875 -2.554688 0.546875 -2.921875 L 0.546875 -3.296875 C 0.578125 -3.691406 0.632812 -4.238281 0.71875 -4.9375 C 0.8125 -5.632812 0.929688 -6.507812 1.078125 -7.5625 C 1.179688 -8.207031 1.304688 -9.003906 1.453125 -9.953125 C 1.597656 -10.910156 1.742188 -12.035156 1.890625 -13.328125 C 2.066406 -14.617188 2.226562 -15.742188 2.375 -16.703125 C 2.519531 -17.660156 2.628906 -18.460938 2.703125 -19.109375 C 2.878906 -20.179688 3.019531 -21.066406 3.125 -21.765625 C 3.238281 -22.472656 3.3125 -23.007812 3.34375 -23.375 C 3.632812 -24.519531 4.015625 -25.3125 4.484375 -25.75 C 4.984375 -26.175781 5.703125 -26.441406 6.640625 -26.546875 C 7.390625 -26.660156 8.738281 -26.71875 10.6875 -26.71875 Z M 10.6875 -26.71875 "/></g></g></g><g fill="#ffffff" fill-opacity="1"><g transform="translate(97.700368, 42.073398)"><g><path d="M 11.546875 -26.71875 L 23.3125 -26.71875 C 24.28125 -26.71875 25.085938 -26.71875 25.734375 -26.71875 C 26.390625 -26.71875 26.878906 -26.695312 27.203125 -26.65625 C 28.390625 -26.625 29.195312 -26.410156 29.625 -26.015625 C 30.132812 -25.648438 30.390625 -24.910156 30.390625 -23.796875 C 30.390625 -23.648438 30.390625 -23.476562 30.390625 -23.28125 C 30.390625 -23.082031 30.367188 -22.878906 30.328125 -22.671875 C 30.296875 -22.347656 30.242188 -21.894531 30.171875 -21.3125 C 30.097656 -20.738281 30.007812 -20.019531 29.90625 -19.15625 L 29.578125 -17.15625 C 29.285156 -14.96875 29.050781 -13.53125 28.875 -12.84375 C 28.65625 -11.832031 28.3125 -11.09375 27.84375 -10.625 C 27.34375 -10.164062 26.570312 -9.863281 25.53125 -9.71875 C 24.84375 -9.601562 23.546875 -9.546875 21.640625 -9.546875 L 9.5 -9.546875 C 9.351562 -9.546875 9.207031 -9.476562 9.0625 -9.34375 C 8.988281 -9.269531 8.914062 -9.050781 8.84375 -8.6875 C 8.84375 -8.507812 8.789062 -8.148438 8.6875 -7.609375 L 20.5625 -7.609375 C 22.6875 -7.609375 24.035156 -7.554688 24.609375 -7.453125 C 25.472656 -7.335938 26.066406 -7.066406 26.390625 -6.640625 C 26.785156 -6.242188 27.019531 -5.453125 27.09375 -4.265625 C 27.164062 -3.941406 27.203125 -3.5 27.203125 -2.9375 C 27.203125 -2.382812 27.203125 -1.710938 27.203125 -0.921875 L 27.203125 0 L 6.796875 0 C 5.722656 0 4.832031 -0.0234375 4.125 -0.078125 C 3.425781 -0.128906 2.878906 -0.175781 2.484375 -0.21875 C 1.722656 -0.4375 1.179688 -0.773438 0.859375 -1.234375 C 0.648438 -1.671875 0.546875 -2.234375 0.546875 -2.921875 L 0.546875 -3.34375 C 0.578125 -3.988281 0.738281 -5.410156 1.03125 -7.609375 L 2.640625 -19.15625 L 3.296875 -23.046875 C 3.546875 -24.304688 3.921875 -25.1875 4.421875 -25.6875 C 4.992188 -26.1875 5.75 -26.492188 6.6875 -26.609375 C 7.082031 -26.679688 7.6875 -26.71875 8.5 -26.71875 C 9.3125 -26.71875 10.328125 -26.71875 11.546875 -26.71875 Z M 11.65625 -19.15625 C 11.113281 -19.15625 10.804688 -19.140625 10.734375 -19.109375 C 10.660156 -19.066406 10.554688 -18.972656 10.421875 -18.828125 C 10.347656 -18.691406 10.273438 -18.53125 10.203125 -18.34375 C 10.203125 -18.207031 10.144531 -17.8125 10.03125 -17.15625 L 21.203125 -17.15625 C 21.492188 -17.195312 21.710938 -17.289062 21.859375 -17.4375 C 21.960938 -17.539062 22.015625 -17.703125 22.015625 -17.921875 C 22.085938 -18.171875 22.144531 -18.582031 22.1875 -19.15625 Z M 11.65625 -19.15625 "/></g></g></g></g></g></svg>